<svg xmlns="http://www.w3.org/2000/svg" xmlns:xlink="http://www.w3.org/1999/xlink" width="500" zoomAndPan="magnify" viewBox="0 0 375 374.999991" height="500" preserveAspectRatio="xMidYMid meet" version="1.0"><defs><filter x="0%" y="0%" width="100%" height="100%" id="0b81b7e495"><feColorMatrix values="0 0 0 0 1 0 0 0 0 1 0 0 0 0 1 0 0 0 1 0" color-interpolation-filters="sRGB"/></filter><clipPath id="3641f5567b"><path d="M 268 187 L 375 187 L 375 300 L 268 300 Z M 268 187 " clip-rule="nonzero"/></clipPath><clipPath id="cc670b3cc3"><path d="M 0 75 L 0 304.265625 C 0 345.6875 33.578125 379.265625 75 379.265625 L 300 379.265625 C 341.421875 379.265625 375 345.6875 375 304.265625 L 375 75 C 375 33.578125 341.421875 0 300 0 L 75 0 C 33.578125 0 0 33.578125 0 75 Z M 0 75 " clip-rule="nonzero"/></clipPath><clipPath id="ee6b76129d"><path d="M 269 303 L 338 303 L 338 358 L 269 358 Z M 269 303 " clip-rule="nonzero"/></clipPath><clipPath id="0eccd730a5"><path d="M 0 75 L 0 304.265625 C 0 345.6875 33.578125 379.265625 75 379.265625 L 300 379.265625 C 341.421875 379.265625 375 345.6875 375 304.265625 L 375 75 C 375 33.578125 341.421875 0 300 0 L 75 0 C 33.578125 0 0 33.578125 0 75 Z M 0 75 " clip-rule="nonzero"/></clipPath><clipPath id="2b03bec0f5"><path d="M 163 241 L 170 241 L 170 246 L 163 246 Z M 163 241 " clip-rule="nonzero"/></clipPath><clipPath id="694112a4dc"><path d="M 0 75 L 0 304.265625 C 0 345.6875 33.578125 379.265625 75 379.265625 L 300 379.265625 C 341.421875 379.265625 375 345.6875 375 304.265625 L 375 75 C 375 33.578125 341.421875 0 300 0 L 75 0 C 33.578125 0 0 33.578125 0 75 Z M 0 75 " clip-rule="nonzero"/></clipPath><clipPath id="00ca311368"><path d="M 271 142 L 306 142 L 306 186 L 271 186 Z M 271 142 " clip-rule="nonzero"/></clipPath><clipPath id="a033783d49"><path d="M 0 75 L 0 304.265625 C 0 345.6875 33.578125 379.265625 75 379.265625 L 300 379.265625 C 341.421875 379.265625 375 345.6875 375 304.265625 L 375 75 C 375 33.578125 341.421875 0 300 0 L 75 0 C 33.578125 0 0 33.578125 0 75 Z M 0 75 " clip-rule="nonzero"/></clipPath><clipPath id="8b491065d4"><path d="M 311 123 L 375 123 L 375 184 L 311 184 Z M 311 123 " clip-rule="nonzero"/></clipPath><clipPath id="fd2ab04d1f"><path d="M 0 75 L 0 304.265625 C 0 345.6875 33.578125 379.265625 75 379.265625 L 300 379.265625 C 341.421875 379.265625 375 345.6875 375 304.265625 L 375 75 C 375 33.578125 341.421875 0 300 0 L 75 0 C 33.578125 0 0 33.578125 0 75 Z M 0 75 " clip-rule="nonzero"/></clipPath><clipPath id="6b39b6935d"><path d="M 335 84 L 343 84 L 343 88 L 335 88 Z M 335 84 " clip-rule="nonzero"/></clipPath><clipPath id="c478b0ccd9"><path d="M 0 75 L 0 304.265625 C 0 345.6875 33.578125 379.265625 75 379.265625 L 300 379.265625 C 341.421875 379.265625 375 345.6875 375 304.265625 L 375 75 C 375 33.578125 341.421875 0 300 0 L 75 0 C 33.578125 0 0 33.578125 0 75 Z M 0 75 " clip-rule="nonzero"/></clipPath><clipPath id="92f4068f4a"><path d="M 293 39 L 305 39 L 305 66 L 293 66 Z M 293 39 " clip-rule="nonzero"/></clipPath><clipPath id="1947391c6e"><path d="M 0 75 L 0 304.265625 C 0 345.6875 33.578125 379.265625 75 379.265625 L 300 379.265625 C 341.421875 379.265625 375 345.6875 375 304.265625 L 375 75 C 375 33.578125 341.421875 0 300 0 L 75 0 C 33.578125 0 0 33.578125 0 75 Z M 0 75 " clip-rule="nonzero"/></clipPath><clipPath id="873eb81f70"><path d="M 0 4 L 297 4 L 297 375 L 0 375 Z M 0 4 " clip-rule="nonzero"/></clipPath><clipPath id="961368aba4"><path d="M 0 75 L 0 304.265625 C 0 345.6875 33.578125 379.265625 75 379.265625 L 300 379.265625 C 341.421875 379.265625 375 345.6875 375 304.265625 L 375 75 C 375 33.578125 341.421875 0 300 0 L 75 0 C 33.578125 0 0 33.578125 0 75 Z M 0 75 " clip-rule="nonzero"/></clipPath><clipPath id="20e835e41b"><path d="M 143 310 L 198 310 L 198 375 L 143 375 Z M 143 310 " clip-rule="nonzero"/></clipPath><clipPath id="3a21788913"><path d="M 0 75 L 0 304.265625 C 0 345.6875 33.578125 379.265625 75 379.265625 L 300 379.265625 C 341.421875 379.265625 375 345.6875 375 304.265625 L 375 75 C 375 33.578125 341.421875 0 300 0 L 75 0 C 33.578125 0 0 33.578125 0 75 Z M 0 75 " clip-rule="nonzero"/></clipPath><clipPath id="a7d3a5e1f0"><path d="M 8 242 L 148 242 L 148 375 L 8 375 Z M 8 242 " clip-rule="nonzero"/></clipPath><clipPath id="996425d324"><path d="M 0 75 L 0 304.265625 C 0 345.6875 33.578125 379.265625 75 379.265625 L 300 379.265625 C 341.421875 379.265625 375 345.6875 375 304.265625 L 375 75 C 375 33.578125 341.421875 0 300 0 L 75 0 C 33.578125 0 0 33.578125 0 75 Z M 0 75 " clip-rule="nonzero"/></clipPath><clipPath id="5a908dbe76"><path d="M 318 72 L 336 72 L 336 81 L 318 81 Z M 318 72 " clip-rule="nonzero"/></clipPath><clipPath id="4a21a62e6a"><path d="M 0 75 L 0 304.265625 C 0 345.6875 33.578125 379.265625 75 379.265625 L 300 379.265625 C 341.421875 379.265625 375 345.6875 375 304.265625 L 375 75 C 375 33.578125 341.421875 0 300 0 L 75 0 C 33.578125 0 0 33.578125 0 75 Z M 0 75 " clip-rule="nonzero"/></clipPath><mask id="604cfac5b9"><g filter="url(#0b81b7e495)"><rect x="-37.5" width="450" fill="#000000" y="-37.499999" height="449.999989" fill-opacity="0.09"/></g></mask><clipPath id="308dc5aef8"><path d="M 0 0.480469 L 156.960938 0.480469 L 156.960938 6.480469 L 0 6.480469 Z M 0 0.480469 " clip-rule="nonzero"/></clipPath><clipPath id="93afb120bb"><rect x="0" width="157" y="0" height="7"/></clipPath></defs><g clip-path="url(#3641f5567b)"><g clip-path="url(#cc670b3cc3)"><path fill="#00a613" d="M 374.863281 190.257812 L 359.757812 189.878906 C 362.167969 198.640625 363.363281 208.707031 362.484375 220.203125 C 362.484375 220.203125 361.152344 216.042969 357.78125 212.042969 C 357.78125 212.042969 348.8125 256.835938 326.878906 272.203125 C 326.878906 272.203125 335.449219 220.457031 319.394531 194.757812 C 319.394531 194.757812 316.898438 212.707031 312.84375 220.09375 C 312.84375 220.09375 312.363281 205.964844 306.84375 188.542969 L 271.804688 187.660156 C 268.371094 225.257812 267.558594 262.671875 269.410156 299.808594 L 341.957031 297.984375 C 362.71875 267.8125 374.882812 231.273438 374.882812 191.882812 C 374.882812 191.339844 374.871094 190.800781 374.863281 190.257812 " fill-opacity="1" fill-rule="nonzero"/></g></g><g clip-path="url(#ee6b76129d)"><g clip-path="url(#0eccd730a5)"><path fill="#00a613" d="M 274.523438 357.851562 C 299.109375 344.929688 320.484375 326.71875 337.109375 304.714844 L 269.59375 303.011719 C 270.585938 321.363281 272.230469 339.644531 274.523438 357.851562 " fill-opacity="1" fill-rule="nonzero"/></g></g><g clip-path="url(#2b03bec0f5)"><g clip-path="url(#694112a4dc)"><path fill="#00a613" d="M 165.042969 241.871094 C 164.375 243.089844 163.804688 244.300781 163.421875 245.464844 C 163.421875 245.464844 166.515625 243.421875 169.859375 241.75 L 165.042969 241.871094 " fill-opacity="1" fill-rule="nonzero"/></g></g><g clip-path="url(#00ca311368)"><g clip-path="url(#a033783d49)"><path fill="#00a613" d="M 277.238281 142.210938 C 275.089844 156.804688 273.335938 171.382812 271.972656 185.929688 L 305.6875 185.078125 C 300.617188 170.539062 291.964844 154.292969 277.238281 142.210938 " fill-opacity="1" fill-rule="nonzero"/></g></g><g clip-path="url(#8b491065d4)"><g clip-path="url(#fd2ab04d1f)"><path fill="#00a613" d="M 353.34375 153.625 C 353.34375 153.625 333.59375 142.875 322.941406 142.027344 C 322.941406 142.027344 347.148438 154.496094 357.816406 183.769531 L 374.679688 183.339844 C 373.933594 166.59375 370.96875 150.429688 366.105469 135.105469 C 356.375 129 338.15625 121.3125 311.027344 124.65625 C 324.207031 129.21875 339.203125 137.800781 353.34375 153.625 " fill-opacity="1" fill-rule="nonzero"/></g></g><g clip-path="url(#6b39b6935d)"><g clip-path="url(#c478b0ccd9)"><path fill="#00a613" d="M 340.753906 84.09375 C 339.144531 85.175781 337.515625 86.339844 335.890625 87.59375 C 335.890625 87.59375 338.203125 86.945312 342.089844 86.003906 C 341.648438 85.363281 341.203125 84.726562 340.753906 84.09375 " fill-opacity="1" fill-rule="nonzero"/></g></g><g clip-path="url(#92f4068f4a)"><g clip-path="url(#1947391c6e)"><path fill="#00a613" d="M 295.652344 65.984375 C 295.652344 65.984375 298.332031 56.628906 304.78125 45.761719 C 302.058594 43.574219 299.273438 41.46875 296.433594 39.433594 C 295 43.953125 291.960938 55.839844 295.652344 65.984375 " fill-opacity="1" fill-rule="nonzero"/></g></g><g clip-path="url(#873eb81f70)"><g clip-path="url(#961368aba4)"><path fill="#00a613" d="M 224.488281 37.402344 C 224.488281 37.402344 238.15625 33.410156 251.46875 44.253906 C 251.46875 44.253906 230.914062 20.375 202.367188 12.160156 C 202.367188 12.160156 234.5 0 277.019531 41.109375 C 277.019531 41.109375 279.074219 36.074219 269.78125 27.089844 C 269.78125 27.089844 285.796875 34.230469 288.472656 54.082031 C 290.394531 49.222656 292.894531 44.226562 296.0625 39.171875 C 265.433594 17.355469 227.976562 4.496094 187.5 4.496094 C 94.640625 4.496094 17.574219 72.042969 2.714844 160.683594 L 91.898438 162.929688 L 2.015625 165.191406 C 0.773438 173.910156 0.117188 182.820312 0.117188 191.882812 C 0.117188 207.15625 1.957031 222.003906 5.410156 236.222656 L 149.628906 239.855469 C 154.6875 234.144531 163.046875 229.507812 176.480469 227.523438 C 176.480469 227.523438 170.007812 233.75 165.972656 240.269531 L 172.773438 240.441406 C 174.074219 239.933594 175.289062 239.601562 176.21875 239.601562 C 176.21875 239.601562 175.671875 239.894531 174.773438 240.492188 L 197.285156 241.054688 L 173.105469 241.667969 C 168.636719 244.992188 160.503906 252.484375 156.683594 265.207031 L 166.640625 258.640625 C 166.640625 258.640625 162.0625 269.25 160.050781 276.445312 C 160.050781 276.445312 164.011719 270.199219 167.144531 268.625 C 170.09375 263.683594 173.421875 259.195312 177.082031 255.929688 C 177.082031 255.929688 171.832031 262.953125 169.527344 273.496094 C 169.527344 273.496094 188.316406 245.953125 201.582031 243.851562 C 201.582031 243.851562 193.242188 247.738281 189.660156 257.148438 C 189.660156 257.148438 224.636719 245.074219 235.222656 258.292969 C 235.222656 258.292969 209.308594 259.375 193.082031 278.925781 C 193.082031 278.925781 198.648438 278.488281 202.929688 282.050781 C 202.929688 282.050781 187.316406 280.09375 172.054688 296.5 C 178.800781 293.917969 187.609375 292.316406 198.496094 293.871094 C 198.496094 293.871094 187.070312 296.199219 182.5625 299.421875 C 182.5625 299.421875 207.457031 293.738281 224.355469 317.238281 C 224.355469 317.238281 222.4375 316.035156 219.765625 315.570312 C 219.765625 315.570312 231.15625 336.34375 227.585938 349.765625 C 227.585938 349.765625 213.710938 326.367188 198.761719 321.53125 C 198.761719 321.53125 203.761719 329.488281 204.621094 333.773438 C 204.621094 333.773438 187.253906 314.484375 164.496094 314.753906 C 178.523438 337.464844 194.367188 358.464844 211.964844 377.664062 C 224.8125 375.984375 237.246094 373.015625 249.140625 368.871094 C 247.105469 346.726562 245.894531 324.554688 245.527344 302.40625 L 205.953125 301.410156 L 245.511719 300.414062 C 244.96875 262.484375 246.886719 224.636719 251.273438 187.148438 L 237.472656 186.796875 L 251.355469 186.449219 C 254.003906 163.945312 257.542969 141.570312 261.988281 119.390625 C 251.011719 122.601562 231.730469 133.046875 225.078125 167.015625 C 225.078125 167.015625 217.84375 157.074219 223.375 144.554688 C 223.375 144.554688 202.675781 186.628906 205.472656 215.273438 C 205.472656 215.273438 198.46875 193.691406 200.90625 183.886719 C 200.90625 183.886719 181.152344 204.621094 191.605469 239.039062 C 191.605469 239.039062 160.648438 208.605469 179.679688 153.878906 C 179.679688 153.878906 175.4375 154.019531 170.738281 169.574219 C 170.738281 169.574219 164.847656 147.351562 204.941406 124.136719 C 204.941406 124.136719 202.371094 121.265625 191.855469 125.101562 C 191.855469 125.101562 198.953125 119.28125 210.375 113.910156 L 198.472656 113.613281 L 211.742188 113.277344 C 219.402344 109.808594 228.867188 106.640625 239.359375 105.507812 C 230.402344 102.996094 220.003906 101.792969 208.890625 103.828125 C 208.890625 103.828125 210.546875 99.078125 226.425781 97.152344 C 226.425781 97.152344 215.484375 81.824219 175.222656 109.636719 C 175.222656 109.636719 178.5625 96.640625 193.75 91.074219 C 193.75 91.074219 164.519531 96.234375 144.132812 115.410156 C 144.132812 115.410156 149.742188 83.527344 203.496094 68.863281 C 203.496094 68.863281 200.40625 64.777344 188.65625 67.980469 C 188.65625 67.980469 212.632812 51.035156 237.808594 79.8125 C 237.808594 79.8125 234.046875 71.480469 229.703125 68.097656 C 229.703125 68.097656 252.246094 75.253906 262.238281 90.992188 C 259.566406 82.269531 255.171875 73.171875 248.035156 64.984375 C 248.035156 64.984375 253.265625 63.921875 263.632812 77.371094 C 263.632812 77.371094 271.695312 59.074219 224.488281 37.402344 " fill-opacity="1" fill-rule="nonzero"/></g></g><g clip-path="url(#20e835e41b)"><g clip-path="url(#3a21788913)"><path fill="#00a613" d="M 152.066406 342.015625 C 152.066406 342.015625 145.875 340.484375 143.890625 333.667969 C 143.890625 333.667969 149.726562 357.273438 160.398438 367.710938 C 160.398438 367.710938 150.414062 361.484375 148.113281 356.78125 C 148.113281 356.78125 147.457031 367.328125 156.640625 376.730469 C 166.679688 378.398438 176.988281 379.265625 187.5 379.265625 C 190.695312 379.265625 193.867188 379.167969 197.023438 379.011719 C 179.511719 357.679688 164.039062 334.820312 150.835938 310.753906 C 147.550781 315.671875 143.34375 326.269531 152.066406 342.015625 " fill-opacity="1" fill-rule="nonzero"/></g></g><g clip-path="url(#a7d3a5e1f0)"><g clip-path="url(#996425d324)"><path fill="#00a613" d="M 146.039062 374.621094 C 140.167969 370.253906 133.972656 363.230469 129.664062 351.960938 C 129.664062 351.960938 128.03125 353.433594 131.355469 361.171875 C 131.355469 361.171875 121.601562 354.320312 129.761719 331.71875 C 129.761719 331.71875 127.78125 331.441406 124.886719 336.472656 C 124.886719 336.472656 127.378906 323.09375 137.199219 312.832031 C 132.804688 314.832031 128.277344 317.824219 124.546875 322.339844 C 124.546875 322.339844 123.617188 319.902344 129.277344 313.839844 C 129.277344 313.839844 119.8125 311.40625 113.125 335.890625 C 113.125 335.890625 110.109375 329.617188 114.277344 322.335938 C 114.277344 322.335938 104.402344 334.144531 102.714844 348.5625 C 102.714844 348.5625 94.296875 334.039062 110.730469 310.269531 C 110.730469 310.269531 108.140625 309.679688 104.546875 314.875 C 104.546875 314.875 108.402344 300.144531 128.003906 303.15625 C 128.003906 303.15625 123.730469 301.105469 120.878906 301.210938 C 120.878906 301.210938 132.21875 296.53125 141.441406 299.445312 C 137.464844 296.871094 132.679688 294.726562 127.109375 293.859375 C 127.109375 293.859375 128.832031 291.6875 137.4375 293.566406 C 137.4375 293.566406 134.527344 283.613281 108.558594 290.777344 C 108.558594 290.777344 112.648438 284.625 121.550781 284.484375 C 121.550781 284.484375 105.421875 281.871094 91.351562 288.144531 C 91.351562 288.144531 100.042969 272.589844 130.640625 274.707031 C 130.640625 274.707031 129.777344 272.019531 123.089844 271.558594 C 123.089844 271.558594 131.828125 269.046875 139.519531 276.027344 C 138.566406 273.1875 137.828125 270.054688 137.414062 266.601562 C 137.414062 266.601562 140.210938 274.828125 146.339844 278.355469 C 146.339844 278.355469 137.050781 257.566406 147.695312 242.308594 L 8.011719 245.828125 C 27.28125 310.035156 80.066406 359.714844 146.039062 374.621094 " fill-opacity="1" fill-rule="nonzero"/></g></g><g clip-path="url(#5a908dbe76)"><g clip-path="url(#4a21a62e6a)"><path fill="#00a613" d="M 331.535156 72.035156 C 326.902344 74.671875 322.148438 77.523438 318.253906 80.183594 C 318.253906 80.183594 328.613281 76.910156 335.621094 77.117188 C 334.289062 75.398438 332.925781 73.703125 331.535156 72.035156 " fill-opacity="1" fill-rule="nonzero"/></g></g><g mask="url(#604cfac5b9)"><g transform="matrix(1, 0, 0, 1, 0, 198)"><g clip-path="url(#93afb120bb)"><g clip-path="url(#308dc5aef8)"><path stroke-linecap="butt" transform="matrix(0.749889, -0.0129113, 0.0129113, 0.749889, -0.0258185, 3.362741)" fill="none" stroke-linejoin="miter" d="M -0.00002306 2.001017 L 206.478546 1.99827 " stroke="#ffffff" stroke-width="4" stroke-opacity="1" stroke-miterlimit="4"/></g></g></g></g></svg>